<svg version="1.1" id="Layer_1" xmlns="http://www.w3.org/2000/svg" xmlns:xlink="http://www.w3.org/1999/xlink" x="0px" y="0px" width="100%" viewBox="0 0 1426 1937" enable-background="new 0 0 1426 1937" xml:space="preserve">

<path fill="#174672" opacity="1.000000" stroke="none" d="
M575.012939,386.004608 
	C585.858704,380.271332 596.762451,374.644745 607.536682,368.780029 
	C623.889709,359.878510 640.164551,350.833069 656.450562,341.808899 
	C671.746399,333.333374 686.951111,324.689178 702.367554,316.440125 
	C704.443604,315.329285 708.057678,315.085846 710.054749,316.145721 
	C729.590027,326.513367 748.934082,337.241516 768.330505,347.870728 
	C784.231873,356.584625 800.132080,365.300415 816.029724,374.021149 
	C822.706360,377.683655 829.333252,381.441040 836.083862,384.961304 
	C837.361816,385.627686 839.116760,385.379364 840.651611,385.553101 
	C840.797852,384.154388 841.293213,382.688049 841.037354,381.367218 
	C837.812744,364.721436 834.379700,348.115784 831.202698,331.461151 
	C828.056702,314.968414 825.151978,298.429749 822.118530,281.915466 
	C821.065063,276.179962 819.943420,270.456940 818.752075,264.198303 
	C821.234924,264.198303 823.037903,264.198303 824.840820,264.198303 
	C944.330200,264.198303 1063.819580,264.197815 1183.308960,264.199005 
	C1197.004883,264.199158 1203.801758,271.035828 1203.801758,284.800537 
	C1203.801880,595.272888 1203.791260,905.745178 1203.874756,1216.217529 
	C1203.876587,1222.626587 1202.165039,1228.065063 1198.455811,1233.207520 
	C1177.348999,1262.470093 1156.843262,1292.181274 1135.169922,1321.015869 
	C1112.868164,1350.686646 1089.712402,1379.728149 1066.468140,1408.673828 
	C1043.670532,1437.062988 1020.514893,1465.172852 997.098206,1493.054077 
	C977.690979,1516.161499 957.923584,1538.978882 937.860535,1561.519531 
	C917.003601,1584.952515 896.109741,1608.391846 874.306763,1630.933594 
	C847.005371,1659.159912 819.000793,1686.721191 790.839417,1714.095947 
	C771.978271,1732.429932 752.236938,1749.857544 729.675415,1763.682983 
	C724.925903,1766.593262 719.778137,1768.857422 714.793396,1771.378906 
	C708.281677,1774.672729 701.887878,1772.964111 696.344727,1769.579468 
	C684.418823,1762.297852 672.492615,1754.887329 661.348206,1746.492065 
	C650.628662,1738.416870 640.581299,1729.365601 630.805603,1720.142456 
	C618.457031,1708.491699 606.730347,1696.184082 594.649536,1684.246704 
	C575.733093,1665.555298 556.549805,1647.129395 537.863464,1628.211548 
	C527.428467,1617.647217 517.786072,1606.301270 507.753265,1595.337891 
	C499.731171,1586.571777 491.530670,1577.965332 483.644379,1569.079346 
	C475.687317,1560.113281 468.068268,1550.848145 460.211761,1541.791626 
	C452.684570,1533.114746 444.939850,1524.625244 437.479797,1515.891968 
	C429.829102,1506.935303 422.436554,1497.758789 414.877625,1488.723145 
	C407.105438,1479.432739 399.175720,1470.272827 391.483582,1460.917114 
	C381.833801,1449.180298 372.376923,1437.284912 362.797302,1425.490234 
	C353.630127,1414.203369 344.309021,1403.039795 335.245453,1391.670776 
	C326.006042,1380.081299 317.011536,1368.296875 307.884674,1356.617310 
	C297.951202,1343.905640 287.798767,1331.359863 278.086060,1318.482178 
	C265.183411,1301.375000 252.457047,1284.129395 239.955658,1266.727173 
	C231.359604,1254.761475 223.159882,1242.504150 215.058334,1230.195923 
	C213.449585,1227.751831 212.893677,1224.528809 212.229553,1221.579956 
	C211.798828,1219.667358 212.006424,1217.600464 212.006378,1215.602783 
	C211.999557,905.297119 212.009064,594.991455 211.939545,284.685791 
	C211.938004,277.846497 212.913361,271.486115 219.130783,267.835480 
	C222.580338,265.810028 226.949677,264.367310 230.912277,264.348907 
	C280.406799,264.118896 329.902771,264.198303 379.398346,264.198303 
	C449.558746,264.198303 519.719177,264.198303 589.879578,264.198303 
	C591.691895,264.198303 593.504211,264.198303 596.283081,264.198303 
	C595.433411,269.824371 594.803955,275.070129 593.828857,280.250824 
	C590.645935,297.161957 587.363098,314.054443 584.069214,330.944489 
	C580.771057,347.856476 577.401001,364.754456 574.110657,381.667938 
	C573.892151,382.791077 574.081177,383.993500 574.124146,385.812866 
	C574.449402,386.312653 574.731140,386.158630 575.012939,386.004608 
M1128.595093,1026.470947 
	C1128.595215,951.472778 1128.640869,876.474548 1128.501709,801.476624 
	C1128.491455,795.952209 1127.794556,790.250244 1126.312866,784.938721 
	C1120.156250,762.868652 1101.469238,749.127625 1078.874878,749.064758 
	C1013.212158,748.882019 947.548645,749.000000 881.885498,749.000000 
	C879.924438,749.000000 877.963379,749.000000 875.595154,749.000000 
	C875.595154,746.564087 875.595154,744.604187 875.595154,742.644226 
	C875.595154,679.314270 875.627136,615.984253 875.528381,552.654480 
	C875.521240,548.088135 874.693176,543.503662 874.020691,538.961060 
	C870.493408,515.136230 849.013672,499.128174 826.590576,499.074799 
	C746.428711,498.884003 666.265442,498.876648 586.104614,499.228821 
	C579.521973,499.257721 572.172913,501.198608 566.523560,504.529724 
	C549.034790,514.841980 539.929993,530.242920 540.030762,551.233948 
	C540.337280,615.062439 540.141846,678.893250 540.141846,742.723206 
	C540.141846,744.673645 540.141846,746.624084 540.141846,749.000000 
	C537.905334,749.000000 536.107910,749.000000 534.310486,749.000000 
	C469.147278,749.000000 403.984070,748.981628 338.820923,749.043579 
	C334.729614,749.047485 330.542664,749.234009 326.564240,750.094238 
	C307.458771,754.225708 294.570251,765.862976 289.427551,784.519592 
	C284.412384,802.713501 288.635803,821.500793 287.702545,840.122803 
	C289.154480,840.320923 290.124359,840.573486 291.092743,840.567810 
	C313.199280,840.438110 335.318024,840.689270 357.408813,840.020752 
	C383.203583,839.240112 407.135468,831.601501 427.959198,816.307434 
	C444.437378,804.205017 462.518463,799.744019 482.534851,799.915283 
	C523.361023,800.264648 564.191650,800.073425 605.019775,800.257996 
	C611.596680,800.287720 617.015198,798.551208 621.831482,793.851135 
	C629.903015,785.974243 641.976440,784.627686 651.173950,790.019592 
	C660.692566,795.599731 665.788635,806.924133 662.738708,817.578796 
	C659.993042,827.170532 653.210449,832.940857 643.430359,835.342346 
	C635.011169,837.409546 627.987244,834.722961 622.432068,828.798889 
	C617.590942,823.636169 612.200500,821.676208 605.244263,821.713684 
	C560.916748,821.952332 516.585144,821.705200 472.262360,822.242615 
	C465.487396,822.324768 458.242279,824.614319 452.096436,827.661499 
	C435.828400,835.727356 420.097565,844.869629 404.047424,853.384583 
	C393.888519,858.774109 382.827545,860.933655 371.420013,860.959839 
	C345.099243,861.020325 318.777924,860.867493 292.456848,860.802185 
	C290.709625,860.797852 288.962402,860.801636 287.232666,860.801636 
	C287.232666,866.843384 287.232666,872.113647 287.232666,877.858154 
	C288.897339,877.858154 290.357513,877.858154 291.817688,877.858154 
	C428.477051,877.858154 565.136414,877.860535 701.795776,877.850891 
	C708.311462,877.850403 713.962402,876.036194 718.650757,871.029236 
	C725.160461,864.077209 733.378479,862.341858 742.416382,865.047363 
	C751.737854,867.837830 759.488586,876.855530 759.996216,885.123047 
	C760.768860,897.706665 755.923706,906.491699 745.675964,911.088013 
	C735.847290,915.496399 726.446228,913.724182 718.400391,905.398682 
	C713.841614,900.681519 708.399109,899.101379 702.179321,899.145142 
	C691.351135,899.221375 680.522949,899.400574 669.694885,899.391479 
	C596.370483,899.329529 523.046021,899.209473 449.721619,899.148926 
	C403.057465,899.110413 356.393158,899.085876 309.729218,899.198303 
	C302.189087,899.216492 294.650757,899.983398 287.385559,900.388916 
	C287.385559,905.782837 287.385559,910.856079 287.385559,916.198425 
	C329.097809,916.198425 370.425964,916.035889 411.751129,916.314148 
	C421.918457,916.382568 432.274750,916.657654 441.500214,922.356995 
	C448.689240,926.798218 456.240021,930.653320 463.436676,935.083069 
	C474.247833,941.737671 485.534790,945.778931 498.582947,945.148987 
	C511.380035,944.531128 524.235901,945.143433 537.066101,945.196289 
	C570.555603,945.334167 604.045044,945.536560 637.534607,945.574829 
	C685.031921,945.629089 732.529358,945.595642 780.026550,945.494629 
	C785.710083,945.482544 791.156738,944.408508 795.095093,939.498474 
	C801.200562,931.886841 809.714722,930.950867 818.463135,932.172119 
	C828.067261,933.512756 836.607666,943.118347 837.610229,954.164368 
	C838.442017,963.328857 835.058899,972.682617 823.635010,978.468872 
	C814.380920,983.156006 803.643005,981.460022 796.655884,973.863586 
	C792.107239,968.918213 786.837097,966.941345 780.281799,966.953003 
	C753.786377,967.000122 727.289856,966.702087 700.795288,966.835693 
	C643.541016,967.124390 586.287842,967.653320 529.033630,967.948242 
	C519.434570,967.997742 509.821014,967.556702 500.233154,967.009338 
	C478.129669,965.747620 457.540558,959.358032 439.466187,946.544250 
	C430.714417,940.339783 421.351654,938.220276 411.187531,938.182068 
	C372.191284,938.035461 333.194458,938.043152 294.197845,938.014282 
	C292.550842,938.013062 290.812256,937.940735 289.290466,938.436279 
	C288.356812,938.740295 287.149323,940.034668 287.106140,940.934265 
	C286.885620,945.527771 287.004303,950.137573 287.004303,956.000000 
	C317.677429,956.000000 347.767944,956.107910 377.856995,955.945618 
	C389.499939,955.882812 400.053558,959.048828 409.654144,965.395691 
	C426.942108,976.824646 444.216095,988.279724 461.312622,999.991516 
	C471.882904,1007.232605 482.838226,1012.882751 496.077606,1012.881470 
	C558.906311,1012.875671 621.734985,1012.969604 684.563660,1012.968445 
	C689.778503,1012.968384 694.394897,1011.075745 698.176208,1007.372192 
	C704.969543,1000.718506 712.728943,997.569214 722.397827,999.963318 
	C731.741089,1002.276855 739.914856,1011.152405 741.024048,1020.788757 
	C742.207825,1031.072998 736.666687,1041.220581 727.323547,1045.879395 
	C717.968079,1050.544189 707.662231,1049.401245 700.560974,1041.938843 
	C695.140259,1036.242310 688.908203,1034.322632 681.348633,1034.349854 
	C617.862610,1034.578735 554.376099,1034.660767 490.889771,1034.810425 
	C480.642059,1034.834595 471.242340,1032.095581 462.754364,1026.365723 
	C443.853363,1013.606445 424.666321,1001.238586 406.215240,987.857117 
	C395.121277,979.811340 383.080505,977.032715 369.934265,977.012268 
	C343.608887,976.971313 317.283417,976.996643 290.957977,977.013062 
	C289.866058,977.013733 288.774231,977.201294 287.404846,977.327332 
	C287.404846,987.677185 287.334137,997.655579 287.423309,1007.632507 
	C287.527435,1019.286133 287.022186,1031.009155 288.113251,1042.576416 
	C290.251617,1065.247681 311.060944,1084.926392 335.645264,1084.964722 
	C401.474915,1085.067139 467.304840,1084.999878 533.134644,1085.000000 
	C535.067932,1085.000000 537.001160,1085.000000 539.141602,1085.000000 
	C539.141602,1086.630371 539.141602,1087.615845 539.141602,1088.601196 
	C539.141663,1154.764282 539.103577,1220.927612 539.225037,1287.090454 
	C539.233459,1291.651733 539.994019,1296.325806 541.152771,1300.751587 
	C546.688538,1321.894409 565.521423,1336.653320 583.714172,1336.769775 
	C665.873108,1337.295898 748.038513,1337.228638 830.198547,1336.800415 
	C846.242188,1336.716797 858.793274,1328.014282 867.990173,1314.942139 
	C874.659058,1305.463135 876.621399,1294.618896 876.614319,1283.230103 
	C876.574402,1219.233521 876.595154,1155.236938 876.595154,1091.240356 
	C876.595154,1089.296631 876.595154,1087.352783 876.595154,1085.000000 
	C879.066284,1085.000000 881.033569,1085.000000 883.000793,1085.000000 
	C948.330627,1085.000000 1013.660522,1085.015747 1078.990356,1084.989380 
	C1095.917114,1084.982544 1109.104858,1077.211548 1118.941284,1064.077393 
	C1126.952271,1053.380615 1129.128540,1040.658447 1128.595093,1026.470947 
z" data-index="1" style="opacity: 1;"></path>
<path fill="#177461" opacity="1.000000" stroke="none" d="
M875.018250,179.221710 
	C877.167664,179.346649 879.317078,179.580505 881.466492,179.580902 
	C981.798584,179.598877 1082.130615,179.623779 1182.462769,179.574097 
	C1203.092773,179.563873 1222.540405,183.904495 1240.064453,195.063843 
	C1262.900757,209.606018 1278.465576,229.800217 1284.878906,256.255493 
	C1287.027466,265.118439 1288.008667,274.480865 1288.013184,283.615723 
	C1288.169189,594.278442 1288.120361,904.941223 1288.191040,1215.604004 
	C1288.196045,1237.661133 1283.736816,1258.265381 1271.080933,1276.699219 
	C1261.999756,1289.926270 1253.420410,1303.517822 1243.913330,1316.428467 
	C1224.835815,1342.335571 1205.435181,1368.009766 1185.867065,1393.549683 
	C1169.269165,1415.213013 1152.387329,1436.663208 1135.369385,1457.999146 
	C1121.915894,1474.866211 1108.070312,1491.420532 1094.389282,1508.105957 
	C1083.942871,1520.846313 1073.586548,1533.662720 1062.997192,1546.283325 
	C1052.704834,1558.549805 1042.168945,1570.612305 1031.735596,1582.760498 
	C1021.845459,1594.276123 1011.984497,1605.817139 1002.041626,1617.287109 
	C996.408386,1623.785767 990.723572,1630.244141 984.909607,1636.580811 
	C969.561584,1653.307495 954.396912,1670.214478 938.658997,1686.568237 
	C922.255981,1703.612915 905.319580,1720.146606 888.518188,1736.804565 
	C877.297668,1747.929321 866.093811,1759.082886 854.540344,1769.856567 
	C841.482971,1782.032227 828.500549,1794.362915 814.640869,1805.582764 
	C800.547302,1816.992310 785.942017,1827.949829 770.625061,1837.623657 
	C750.424805,1850.381470 728.399841,1858.894409 703.880188,1857.925415 
	C689.248291,1857.347412 675.425354,1853.258301 662.090637,1847.127808 
	C640.226196,1837.075928 620.984009,1823.075439 602.582764,1807.897949 
	C591.384583,1798.661621 580.749207,1788.710083 570.225708,1778.696655 
	C556.009338,1765.169434 542.154053,1751.263184 528.124268,1737.539551 
	C512.553589,1722.308716 496.701080,1707.355347 481.455261,1691.806519 
	C467.779663,1677.859131 454.625397,1663.390747 441.489929,1648.926392 
	C428.178253,1634.268188 415.086273,1619.407715 402.055939,1604.497925 
	C389.705902,1590.366211 377.438293,1576.158569 365.358429,1561.795776 
	C352.790253,1546.852539 340.498016,1531.677246 328.070648,1516.615356 
	C315.327789,1501.171021 302.411713,1485.866577 289.856506,1470.271362 
	C276.100983,1453.185181 262.592346,1435.898193 249.118713,1418.587646 
	C229.647858,1393.572021 209.878998,1368.771851 191.034927,1343.289917 
	C174.083878,1320.367798 157.815048,1296.912231 142.010590,1273.182373 
	C133.121841,1259.836182 128.394058,1244.650024 127.962738,1228.383423 
	C127.781151,1221.534790 127.443810,1214.686157 127.443230,1207.837524 
	C127.417091,900.174683 127.464088,592.511902 127.298363,284.849121 
	C127.289642,268.649170 129.881561,253.341721 136.635071,238.662155 
	C143.259354,224.263519 152.884308,212.353668 165.086731,202.240067 
	C178.068314,191.480652 192.829819,184.767807 209.204224,181.628082 
	C215.991959,180.326569 223.011475,179.687317 229.926682,179.679153 
	C331.591949,179.559158 433.257385,179.618393 534.922668,179.512039 
	C538.755676,179.508026 541.305176,180.779037 544.009888,183.357803 
	C559.737061,198.352921 575.662659,213.139954 591.511902,228.007248 
	C592.316589,228.762100 593.035156,229.608734 594.483093,231.142960 
	C591.641296,231.142960 589.723206,231.142960 587.805115,231.142960 
	C469.306610,231.142960 350.808075,231.122192 232.309586,231.171555 
	C218.845245,231.177155 206.125336,234.384598 196.032486,243.669174 
	C185.375595,253.472565 179.135773,265.725983 179.136200,280.645599 
	C179.145187,592.974976 179.157135,905.304382 179.090012,1217.633789 
	C179.087387,1229.853149 182.002594,1240.866211 189.262283,1250.824341 
	C212.113403,1282.169312 234.545959,1313.823242 257.672089,1344.962769 
	C274.448578,1367.552368 291.894043,1389.653687 309.366730,1411.714966 
	C323.880493,1430.040283 338.852325,1448.003174 353.652039,1466.101440 
	C367.315826,1482.810547 380.867981,1499.614258 394.752350,1516.138550 
	C407.297577,1531.069214 420.206390,1545.695068 432.990143,1560.424561 
	C446.526337,1576.020996 459.974487,1591.696899 473.708984,1607.117188 
	C482.976959,1617.522827 492.591309,1627.625122 502.198700,1637.722290 
	C517.548828,1653.855103 532.834534,1670.056396 548.496582,1685.883301 
	C563.710205,1701.256836 579.099792,1716.476929 594.886230,1731.257935 
	C617.767334,1752.681885 640.420532,1774.491821 667.470459,1790.801880 
	C675.389648,1795.576782 683.933472,1799.393433 692.418274,1803.133667 
	C703.454651,1807.999023 714.458313,1806.481567 725.436646,1802.211914 
	C741.821899,1795.839233 756.400574,1786.449097 769.890808,1775.442627 
	C782.899963,1764.828613 795.445679,1753.633789 807.962891,1742.434692 
	C815.877502,1735.353271 823.447754,1727.878784 831.031372,1720.437012 
	C852.292297,1699.574219 873.768188,1678.919067 894.599731,1657.634399 
	C909.635864,1642.271118 923.794373,1626.047852 938.310791,1610.177368 
	C947.903687,1599.689941 957.606018,1589.295654 966.954895,1578.593628 
	C978.654053,1565.201050 990.013367,1551.511963 1001.571899,1537.995728 
	C1009.807251,1528.365479 1018.266968,1518.923828 1026.377930,1509.190918 
	C1036.888916,1496.578125 1047.114990,1483.728638 1057.533691,1471.038452 
	C1067.017700,1459.486816 1076.730225,1448.120850 1086.096558,1436.475586 
	C1097.285156,1422.564819 1108.196411,1408.430908 1119.258057,1394.417725 
	C1130.631958,1380.009155 1142.210815,1365.758667 1153.394043,1351.203979 
	C1167.051758,1333.428833 1180.571655,1315.541016 1193.809937,1297.452515 
	C1204.092041,1283.403076 1213.526367,1268.728638 1223.939331,1254.781250 
	C1233.219116,1242.351929 1236.855835,1228.501343 1236.855957,1213.353394 
	C1236.857300,903.857300 1236.882446,594.361206 1236.803833,284.865143 
	C1236.798096,262.433228 1227.127075,245.114594 1206.339478,235.814743 
	C1199.112915,232.581757 1190.431763,231.350021 1182.410034,231.331390 
	C1061.910522,231.051315 941.410095,231.126907 820.452820,230.838867 
	C820.016418,230.379379 820.037170,230.199905 820.057861,230.020416 
	C820.420044,230.005676 820.697021,229.844498 821.268372,229.184052 
	C823.469971,226.901627 825.291870,224.972031 827.113831,223.042419 
	C830.665466,219.922745 834.217102,216.803055 838.207764,213.259048 
	C840.446228,210.926834 842.245544,209.018951 844.044800,207.111053 
	C847.616272,203.972504 851.187744,200.833954 855.212769,197.279694 
	C857.815552,194.590118 859.964783,192.316254 862.114014,190.042404 
	C865.575989,187.021225 869.038025,184.000061 872.984680,180.567963 
	C873.985657,179.845261 874.501953,179.533493 875.018250,179.221710 
z" data-index="2" style="opacity: 1;"></path>
<path fill="#EFAC2E" opacity="1.000000" stroke="none" d="
M626.674561,320.844238 
	C625.299866,321.526794 623.925171,322.209351 622.024902,323.106537 
	C621.042053,323.523376 620.584778,323.725555 620.127502,323.927734 
	C624.243103,301.851990 628.338074,279.772400 632.484009,257.702332 
	C634.203186,248.550507 636.197388,239.445816 637.674255,230.256653 
	C637.982239,228.340622 637.077393,225.732498 635.825012,224.169830 
	C633.456909,221.215012 630.431213,218.787308 627.239502,215.700073 
	C625.149658,213.702011 623.498962,212.144424 621.848206,210.586853 
	C618.157593,207.046463 614.466919,203.506058 610.320251,199.525131 
	C608.187195,197.585205 606.510132,196.085815 604.833130,194.586441 
	C601.147339,191.045959 597.461548,187.505478 593.311890,183.529938 
	C591.169434,181.595627 589.490723,180.096405 587.812073,178.597168 
	C584.133118,175.052979 580.454102,171.508789 576.303467,167.535187 
	C574.153137,165.606079 572.474426,164.106400 570.795715,162.606705 
	C569.634094,161.243301 568.472412,159.879898 566.953796,158.097473 
	C582.592468,156.066986 597.719116,154.074539 612.853882,152.145630 
	C629.172485,150.065842 645.510986,148.134323 661.802429,145.862579 
	C663.440857,145.634109 665.450928,143.807388 666.215088,142.209167 
	C678.841553,115.800331 691.294434,89.308487 703.792053,62.838001 
	C704.758850,60.790127 705.769165,58.762764 707.235840,55.745411 
	C712.883728,67.707062 718.037842,78.623238 723.192322,89.539223 
	C731.429871,106.984512 739.731689,124.400070 747.839417,141.905518 
	C749.110596,144.650192 750.589722,145.783447 753.687561,146.165878 
	C784.690369,149.993332 815.666077,154.040207 846.647217,158.042618 
	C846.902954,158.075684 847.127808,158.347229 847.783508,158.786148 
	C838.550049,167.495514 829.403442,176.138306 820.239685,184.762863 
	C806.176758,197.998459 792.047913,211.165298 778.129639,224.551147 
	C776.951599,225.684097 776.480591,228.370605 776.806274,230.126694 
	C782.324951,259.884949 788.024902,289.609528 793.665771,319.345215 
	C793.846741,320.299255 793.824951,321.291779 793.946533,322.920532 
	C789.273865,320.395935 785.052368,318.144592 780.857910,315.844025 
	C758.246704,303.442566 735.687012,290.945465 712.966370,278.747986 
	C710.690369,277.526184 707.451843,278.097443 704.026978,278.140625 
	C702.153564,279.244843 700.913147,280.044983 699.672729,280.845123 
	C697.550964,281.910736 695.429199,282.976318 692.750000,284.385498 
	C691.019470,285.434540 689.846313,286.139954 688.673218,286.845337 
	C687.297729,287.525299 685.922302,288.205261 683.956665,289.144775 
	C681.487366,290.558533 679.608215,291.712738 677.729004,292.866943 
	C676.336182,293.546387 674.943359,294.225861 672.972290,295.175018 
	C671.153564,296.244843 669.913147,297.044983 668.672729,297.845123 
	C666.550903,298.910767 664.429077,299.976379 661.750122,301.385986 
	C660.019775,302.435089 658.846497,303.140228 657.673218,303.845398 
	C656.297729,304.525330 654.922302,305.205231 652.958740,306.150726 
	C650.505615,307.573669 648.640625,308.731079 646.775635,309.888458 
	C645.368591,310.560028 643.961548,311.231628 641.974365,312.173889 
	C640.153809,313.244781 638.913391,314.044983 637.672974,314.845154 
	C636.292603,315.514679 634.912292,316.184235 632.949463,317.127502 
	C630.469421,318.548920 628.572021,319.696594 626.674561,320.844238 
z" data-index="3"></path>
<path fill="#FFFFFF" opacity="1.000000" stroke="none" d="
M587.462280,178.762421 
	C589.490723,180.096405 591.169434,181.595627 593.013855,183.362320 
	C591.643738,183.668777 589.541626,184.336166 588.713440,183.589828 
	C587.646118,182.627991 587.599060,180.534027 587.462280,178.762421 
z" data-index="4"></path>
<path fill="#FFFFFF" opacity="1.000000" stroke="none" d="
M570.448303,162.771606 
	C572.474426,164.106400 574.153137,165.606079 576.005249,167.367599 
	C574.644958,167.669708 572.546692,168.338074 571.718201,167.593552 
	C570.648254,166.632004 570.593079,164.541107 570.448303,162.771606 
z" data-index="5"></path>
<path fill="#FFFFFF" opacity="1.000000" stroke="none" d="
M621.493896,210.749359 
	C623.498962,212.144424 625.149658,213.702011 626.935547,215.551956 
	C622.763916,217.368408 620.437561,215.433762 621.493896,210.749359 
z" data-index="6"></path>
<path fill="#FFFFFF" opacity="1.000000" stroke="none" d="
M604.480408,194.751709 
	C606.510132,196.085815 608.187195,197.585205 610.022278,199.357483 
	C608.641907,199.667603 606.535034,200.333450 605.707214,199.584869 
	C604.643555,198.622894 604.606812,196.525330 604.480408,194.751709 
z" data-index="7"></path>
<path fill="#FFFFFF" opacity="1.000000" stroke="none" d="
M861.719360,190.030853 
	C859.964783,192.316254 857.815552,194.590118 855.347717,196.971832 
	C855.365173,193.154617 856.473206,189.917969 861.719360,190.030853 
z" data-index="8"></path>
<path fill="#FFFFFF" opacity="1.000000" stroke="none" d="
M843.854126,206.846146 
	C842.245544,209.018951 840.446228,210.926834 838.334290,212.947052 
	C838.301453,209.505844 839.194702,206.486526 843.854126,206.846146 
z" data-index="9"></path>
<path fill="#FFFFFF" opacity="1.000000" stroke="none" d="
M826.716614,223.030960 
	C825.291870,224.972031 823.469971,226.901627 821.334412,228.944427 
	C821.208984,225.660187 821.956116,222.753220 826.716614,223.030960 
z" data-index="10"></path>
<path fill="#FFFFFF" opacity="1.000000" stroke="none" d="
M627.028564,320.994629 
	C628.572021,319.696594 630.469421,318.548920 632.685059,317.330566 
	C633.066345,321.356628 631.260681,322.749908 627.028564,320.994629 
z" data-index="11"></path>
<path fill="#FFFFFF" opacity="1.000000" stroke="none" d="
M647.120483,310.036987 
	C648.640625,308.731079 650.505615,307.573669 652.687134,306.343750 
	C653.074951,310.288940 651.321960,311.725525 647.120483,310.036987 
z" data-index="12"></path>
<path fill="#FFFFFF" opacity="1.000000" stroke="none" d="
M678.077820,293.016541 
	C679.608215,291.712738 681.487366,290.558533 683.685120,289.337769 
	C684.068665,293.324493 682.288940,294.736359 678.077820,293.016541 
z" data-index="13"></path>
<path fill="#FFFFFF" opacity="1.000000" stroke="none" d="
M874.987061,178.899139 
	C874.501953,179.533493 873.985657,179.845261 873.195068,180.282654 
	C872.647705,179.479538 872.374695,178.550812 872.101685,177.622070 
	C873.053040,177.940231 874.004456,178.258392 874.987061,178.899139 
z" data-index="14"></path>
<path fill="#FFFFFF" opacity="1.000000" stroke="none" d="
M669.000977,297.980408 
	C669.913147,297.044983 671.153564,296.244843 672.699341,295.371368 
	C672.871582,297.661774 672.471252,299.676941 669.000977,297.980408 
z" data-index="15"></path>
<path fill="#FFFFFF" opacity="1.000000" stroke="none" d="
M638.001221,314.980469 
	C638.913391,314.044983 640.153809,313.244781 641.699463,312.371277 
	C641.871399,314.661346 641.471741,316.677155 638.001221,314.980469 
z" data-index="16"></path>
<path fill="#FFFFFF" opacity="1.000000" stroke="none" d="
M700.000977,280.980408 
	C700.913147,280.044983 702.153564,279.244843 703.699341,278.371368 
	C703.871582,280.661774 703.471252,282.676941 700.000977,280.980408 
z" data-index="17"></path>
<path fill="#FFFFFF" opacity="1.000000" stroke="none" d="
M819.688782,230.021698 
	C820.037170,230.199905 820.016418,230.379379 819.982300,230.829529 
	C819.380676,231.666077 818.792542,232.231934 818.204407,232.797791 
	C817.857239,232.334778 817.510132,231.871750 817.162964,231.408722 
	C817.881897,230.946808 818.600769,230.484894 819.688782,230.021698 
z" data-index="18"></path>
<path fill="#FFFFFF" opacity="1.000000" stroke="none" d="
M658.013611,303.986023 
	C658.846497,303.140228 660.019775,302.435089 661.518921,301.607208 
	C661.878601,303.947144 661.240601,305.522308 658.013611,303.986023 
z" data-index="19"></path>
<path fill="#FFFFFF" opacity="1.000000" stroke="none" d="
M689.013550,286.985992 
	C689.846313,286.139954 691.019470,285.434540 692.518738,284.606812 
	C692.878601,286.947266 692.240356,288.522186 689.013550,286.985992 
z" data-index="20"></path>
<path fill="#FFFFFF" opacity="1.000000" stroke="none" d="
M619.877380,324.111786 
	C620.584778,323.725555 621.042053,323.523376 621.751465,323.296326 
	C621.517944,324.135101 621.032166,324.998688 620.546448,325.862274 
	C620.240051,325.340118 619.933655,324.817963 619.877380,324.111786 
z" data-index="21"></path>
<path fill="#FFFFFF" opacity="1.000000" stroke="none" d="
M574.828979,386.002625 
	C574.731140,386.158630 574.449402,386.312653 574.222290,386.231995 
	C574.276978,385.997284 574.644958,386.000641 574.828979,386.002625 
z" data-index="22"></path>
<path fill="#CDDEDA" opacity="1.000000" stroke="none" d="
M595.509033,231.551239 
	C595.448120,231.583542 595.570007,231.518936 595.509033,231.551239 
z" data-index="23"></path>
<path fill="#FFFFFF" opacity="1.000000" stroke="none" d="
M1128.594971,1026.964600 
	C1129.128540,1040.658447 1126.952271,1053.380615 1118.941284,1064.077393 
	C1109.104858,1077.211548 1095.917114,1084.982544 1078.990356,1084.989380 
	C1013.660522,1085.015747 948.330627,1085.000000 883.000793,1085.000000 
	C881.033569,1085.000000 879.066284,1085.000000 876.595154,1085.000000 
	C876.595154,1087.352783 876.595154,1089.296631 876.595154,1091.240356 
	C876.595154,1155.236938 876.574402,1219.233521 876.614319,1283.230103 
	C876.621399,1294.618896 874.659058,1305.463135 867.990173,1314.942139 
	C858.793274,1328.014282 846.242188,1336.716797 830.198547,1336.800415 
	C748.038513,1337.228638 665.873108,1337.295898 583.714172,1336.769775 
	C565.521423,1336.653320 546.688538,1321.894409 541.152771,1300.751587 
	C539.994019,1296.325806 539.233459,1291.651733 539.225037,1287.090454 
	C539.103577,1220.927612 539.141663,1154.764282 539.141602,1088.601196 
	C539.141602,1087.615845 539.141602,1086.630371 539.141602,1085.000000 
	C537.001160,1085.000000 535.067932,1085.000000 533.134644,1085.000000 
	C467.304840,1084.999878 401.474915,1085.067139 335.645264,1084.964722 
	C311.060944,1084.926392 290.251617,1065.247681 288.113251,1042.576416 
	C287.022186,1031.009155 287.527435,1019.286133 287.423309,1007.632507 
	C287.334137,997.655579 287.404846,987.677185 287.404846,977.327332 
	C288.774231,977.201294 289.866058,977.013733 290.957977,977.013062 
	C317.283417,976.996643 343.608887,976.971313 369.934265,977.012268 
	C383.080505,977.032715 395.121277,979.811340 406.215240,987.857117 
	C424.666321,1001.238586 443.853363,1013.606445 462.754364,1026.365723 
	C471.242340,1032.095581 480.642059,1034.834595 490.889771,1034.810425 
	C554.376099,1034.660767 617.862610,1034.578735 681.348633,1034.349854 
	C688.908203,1034.322632 695.140259,1036.242310 700.560974,1041.938843 
	C707.662231,1049.401245 717.968079,1050.544189 727.323547,1045.879395 
	C736.666687,1041.220581 742.207825,1031.072998 741.024048,1020.788757 
	C739.914856,1011.152405 731.741089,1002.276855 722.397827,999.963318 
	C712.728943,997.569214 704.969543,1000.718506 698.176208,1007.372192 
	C694.394897,1011.075745 689.778503,1012.968384 684.563660,1012.968445 
	C621.734985,1012.969604 558.906311,1012.875671 496.077606,1012.881470 
	C482.838226,1012.882751 471.882904,1007.232605 461.312622,999.991516 
	C444.216095,988.279724 426.942108,976.824646 409.654144,965.395691 
	C400.053558,959.048828 389.499939,955.882812 377.856995,955.945618 
	C347.767944,956.107910 317.677429,956.000000 287.004303,956.000000 
	C287.004303,950.137573 286.885620,945.527771 287.106140,940.934265 
	C287.149323,940.034668 288.356812,938.740295 289.290466,938.436279 
	C290.812256,937.940735 292.550842,938.013062 294.197845,938.014282 
	C333.194458,938.043152 372.191284,938.035461 411.187531,938.182068 
	C421.351654,938.220276 430.714417,940.339783 439.466187,946.544250 
	C457.540558,959.358032 478.129669,965.747620 500.233154,967.009338 
	C509.821014,967.556702 519.434570,967.997742 529.033630,967.948242 
	C586.287842,967.653320 643.541016,967.124390 700.795288,966.835693 
	C727.289856,966.702087 753.786377,967.000122 780.281799,966.953003 
	C786.837097,966.941345 792.107239,968.918213 796.655884,973.863586 
	C803.643005,981.460022 814.380920,983.156006 823.635010,978.468872 
	C835.058899,972.682617 838.442017,963.328857 837.610229,954.164368 
	C836.607666,943.118347 828.067261,933.512756 818.463135,932.172119 
	C809.714722,930.950867 801.200562,931.886841 795.095093,939.498474 
	C791.156738,944.408508 785.710083,945.482544 780.026550,945.494629 
	C732.529358,945.595642 685.031921,945.629089 637.534607,945.574829 
	C604.045044,945.536560 570.555603,945.334167 537.066101,945.196289 
	C524.235901,945.143433 511.380035,944.531128 498.582947,945.148987 
	C485.534790,945.778931 474.247833,941.737671 463.436676,935.083069 
	C456.240021,930.653320 448.689240,926.798218 441.500214,922.356995 
	C432.274750,916.657654 421.918457,916.382568 411.751129,916.314148 
	C370.425964,916.035889 329.097809,916.198425 287.385559,916.198425 
	C287.385559,910.856079 287.385559,905.782837 287.385559,900.388916 
	C294.650757,899.983398 302.189087,899.216492 309.729218,899.198303 
	C356.393158,899.085876 403.057465,899.110413 449.721619,899.148926 
	C523.046021,899.209473 596.370483,899.329529 669.694885,899.391479 
	C680.522949,899.400574 691.351135,899.221375 702.179321,899.145142 
	C708.399109,899.101379 713.841614,900.681519 718.400391,905.398682 
	C726.446228,913.724182 735.847290,915.496399 745.675964,911.088013 
	C755.923706,906.491699 760.768860,897.706665 759.996216,885.123047 
	C759.488586,876.855530 751.737854,867.837830 742.416382,865.047363 
	C733.378479,862.341858 725.160461,864.077209 718.650757,871.029236 
	C713.962402,876.036194 708.311462,877.850403 701.795776,877.850891 
	C565.136414,877.860535 428.477051,877.858154 291.817688,877.858154 
	C290.357513,877.858154 288.897339,877.858154 287.232666,877.858154 
	C287.232666,872.113647 287.232666,866.843384 287.232666,860.801636 
	C288.962402,860.801636 290.709625,860.797852 292.456848,860.802185 
	C318.777924,860.867493 345.099243,861.020325 371.420013,860.959839 
	C382.827545,860.933655 393.888519,858.774109 404.047424,853.384583 
	C420.097565,844.869629 435.828400,835.727356 452.096436,827.661499 
	C458.242279,824.614319 465.487396,822.324768 472.262360,822.242615 
	C516.585144,821.705200 560.916748,821.952332 605.244263,821.713684 
	C612.200500,821.676208 617.590942,823.636169 622.432068,828.798889 
	C627.987244,834.722961 635.011169,837.409546 643.430359,835.342346 
	C653.210449,832.940857 659.993042,827.170532 662.738708,817.578796 
	C665.788635,806.924133 660.692566,795.599731 651.173950,790.019592 
	C641.976440,784.627686 629.903015,785.974243 621.831482,793.851135 
	C617.015198,798.551208 611.596680,800.287720 605.019775,800.257996 
	C564.191650,800.073425 523.361023,800.264648 482.534851,799.915283 
	C462.518463,799.744019 444.437378,804.205017 427.959198,816.307434 
	C407.135468,831.601501 383.203583,839.240112 357.408813,840.020752 
	C335.318024,840.689270 313.199280,840.438110 291.092743,840.567810 
	C290.124359,840.573486 289.154480,840.320923 287.702545,840.122803 
	C288.635803,821.500793 284.412384,802.713501 289.427551,784.519592 
	C294.570251,765.862976 307.458771,754.225708 326.564240,750.094238 
	C330.542664,749.234009 334.729614,749.047485 338.820923,749.043579 
	C403.984070,748.981628 469.147278,749.000000 534.310486,749.000000 
	C536.107910,749.000000 537.905334,749.000000 540.141846,749.000000 
	C540.141846,746.624084 540.141846,744.673645 540.141846,742.723206 
	C540.141846,678.893250 540.337280,615.062439 540.030762,551.233948 
	C539.929993,530.242920 549.034790,514.841980 566.523560,504.529724 
	C572.172913,501.198608 579.521973,499.257721 586.104614,499.228821 
	C666.265442,498.876648 746.428711,498.884003 826.590576,499.074799 
	C849.013672,499.128174 870.493408,515.136230 874.020691,538.961060 
	C874.693176,543.503662 875.521240,548.088135 875.528381,552.654480 
	C875.627136,615.984253 875.595154,679.314270 875.595154,742.644226 
	C875.595154,744.604187 875.595154,746.564087 875.595154,749.000000 
	C877.963379,749.000000 879.924438,749.000000 881.885498,749.000000 
	C947.548645,749.000000 1013.212158,748.882019 1078.874878,749.064758 
	C1101.469238,749.127625 1120.156250,762.868652 1126.312866,784.938721 
	C1127.794556,790.250244 1128.491455,795.952209 1128.501709,801.476624 
	C1128.640869,876.474548 1128.595215,951.472778 1128.594971,1026.964600 
z" data-index="24" style="opacity: 1;"></path>
</svg>